<mxfile host="app.diagrams.net" modified="2024-06-08T07:53:58.579Z" agent="Mozilla/5.0 (Windows NT 10.0; Win64; x64) AppleWebKit/537.36 (KHTML, like Gecko) Chrome/125.0.0.0 Safari/537.36" version="23.1.8" etag="uFjVSyS9cMuChj6e7oTd" type="github">
  <diagram name="Page-1" id="uAa3DE4L8jM4W6tSq7gY">
    <mxGraphModel>
      <root>
        <mxCell id="0" />
        <mxCell id="1" parent="0" />
      </root>
    </mxGraphModel>
  </diagram>
</mxfile>
